<?xml version="1.0" encoding="UTF-8" standalone="no"?>
<svg
   width="32"
   height="32"
   version="1"
   id="svg85"
   sodipodi:docname="regexxer.svg"
   inkscape:version="1.1.2 (0a00cf5339, 2022-02-04)"
   xmlns:inkscape="http://www.inkscape.org/namespaces/inkscape"
   xmlns:sodipodi="http://sodipodi.sourceforge.net/DTD/sodipodi-0.dtd"
   xmlns="http://www.w3.org/2000/svg"
   xmlns:svg="http://www.w3.org/2000/svg">
  <defs
     id="defs89" />
  <sodipodi:namedview
     id="namedview87"
     pagecolor="#ffffff"
     bordercolor="#666666"
     borderopacity="1.0"
     inkscape:pageshadow="2"
     inkscape:pageopacity="0.0"
     inkscape:pagecheckerboard="0"
     showgrid="false"
     inkscape:zoom="14.40625"
     inkscape:cx="16"
     inkscape:cy="16"
     inkscape:window-width="1440"
     inkscape:window-height="736"
     inkscape:window-x="0"
     inkscape:window-y="0"
     inkscape:window-maximized="1"
     inkscape:current-layer="svg85" />
  <g
     id="g439"
     transform="translate(-0.90267156,1.1385024)">
    <path
       style="fill:#ff4500"
       d="M 6.5,2 C 5.669,2 5,2.669 5,3.5 v 25 C 5,29.331 5.669,30 6.5,30 h 19 C 26.331,30 27,29.331 27,28.5 V 3.5 C 27,2.669 26.331,2 25.5,2 Z"
       id="path415" />
    <path
       style="opacity:0.2"
       d="M 6.5,2 C 5.669,2 5,2.669 5,3.5 v 25 C 5,29.331 5.669,30 6.5,30 H 9 V 2 Z"
       id="path417" />
    <path
       style="opacity:0.2"
       d="m 19,3 v 14 l 2,-2 2,2 V 3 Z"
       id="path419" />
    <path
       style="fill:#fe8217"
       d="m 19,2 v 14 l 2,-2 2,2 V 2 Z"
       id="path421" />
    <path
       style="opacity:0.2;fill:#ffffff"
       d="M 6.5,2 C 5.669,2 5,2.669 5,3.5 v 1 C 5,3.669 5.669,3 6.5,3 h 19 C 26.331,3 27,3.669 27,4.5 v -1 C 27,2.669 26.331,2 25.5,2 Z"
       id="path423" />
    <path
       style="opacity:0.2"
       d="m 5,28.5 v 1 C 5,30.331 5.669,31 6.5,31 h 19 c 0.831,0 1.5,-0.669 1.5,-1.5 v -1 C 27,29.331 26.331,30 25.5,30 H 6.5 C 5.669,30 5,29.331 5,28.5 Z"
       id="path425" />
  </g>
  <path
     d="m 14.5001,11.99652 c 3.0288,0 5.5312,2.4746 5.5312,5.5 0,1.1499 -0.38921,2.2078 -1,3.0938 l 3.6875,3.6875 a 1.0055,1.0055 0 0 1 -1.4063,1.4375 l -3.6875,-3.6875 c -0.88729,0.61091 -1.973,0.96875 -3.125,0.96875 -3.0289,0 -5.5,-2.4746 -5.5,-5.5 0,-3.0254 2.4711,-5.5 5.5,-5.5 z m 0,2 c -1.9474,0 -3.5,1.5548 -3.5,3.5 0,1.9451 1.5526,3.5 3.5,3.5 1.9474,0 3.5,-1.5549 3.5,-3.5 0,-1.9452 -1.5526,-3.5 -3.5,-3.5 z"
     style="opacity:0.2"
     id="path79" />
  <path
     style="fill:#f9f9f9"
     d="m 14.5001,10.99652 c 3.0288,0 5.5312,2.4746 5.5312,5.5 0,1.1499 -0.38921,2.2078 -1,3.0938 l 3.6875,3.6875 a 1.0055,1.0055 0 0 1 -1.4063,1.4375 l -3.6875,-3.6875 c -0.88729,0.61091 -1.973,0.96875 -3.125,0.96875 -3.0289,0 -5.5,-2.4746 -5.5,-5.5 0,-3.0254 2.4711,-5.5 5.5,-5.5 z m 0,2 c -1.9474,0 -3.5,1.5548 -3.5,3.5 0,1.9451 1.5526,3.5 3.5,3.5 1.9474,0 3.5,-1.5549 3.5,-3.5 0,-1.9452 -1.5526,-3.5 -3.5,-3.5 z"
     id="path81" />
</svg>
